<svg width="264" height="289" viewBox="0 0 264 289" fill="none" xmlns="http://www.w3.org/2000/svg">
<path fill-rule="evenodd" clip-rule="evenodd" d="M130.241 14.44L163.37 138.079L199.109 128.502L159.794 271.552L126.665 147.914L90.9256 157.49L130.241 14.44Z" fill="#FF0000"/>
<path d="M155.573 136.027L152.675 136.803L153.452 139.701L156.35 138.924L155.573 136.027ZM122.444 12.388L125.342 11.6116L122.481 0.934073L119.552 11.593L122.444 12.388ZM191.313 126.45L194.205 127.245L195.593 122.198L190.536 123.552L191.313 126.45ZM151.997 269.5L149.099 270.277L151.96 280.954L154.89 270.295L151.997 269.5ZM118.868 145.862L121.766 145.085L120.989 142.187L118.092 142.964L118.868 145.862ZM83.1288 155.438L80.2361 154.643L78.8488 159.691L83.9053 158.336L83.1288 155.438ZM158.471 135.25L125.342 11.6116L119.547 13.1645L152.675 136.803L158.471 135.25ZM190.536 123.552L154.797 133.129L156.35 138.924L192.089 129.348L190.536 123.552ZM154.89 270.295L194.205 127.245L188.42 125.655L149.104 268.705L154.89 270.295ZM115.97 146.638L149.099 270.277L154.895 268.724L121.766 145.085L115.97 146.638ZM83.9053 158.336L119.645 148.759L118.092 142.964L82.3524 152.54L83.9053 158.336ZM119.552 11.593L80.2361 154.643L86.0216 156.233L125.337 13.1831L119.552 11.593Z" fill="black"/>
<circle cx="172" cy="27" r="22" fill="#FF0000"/>
<circle cx="105" cy="267" r="22" fill="#FF0000"/>
<path fill-rule="evenodd" clip-rule="evenodd" d="M105 15.7637C45.048 28.2249 0 81.3517 0 145C0 208.648 45.048 261.775 105 274.236V256.813C54.5142 244.665 17 199.214 17 145C17 90.7863 54.5142 45.3345 105 33.1873V15.7637ZM174 252.089C216.74 235.314 247 193.691 247 145C247 96.3094 216.74 54.6863 174 37.9108V19.8223C226.311 37.3663 264 86.7817 264 145C264 203.218 226.311 252.634 174 270.178V252.089Z" fill="#FF0000"/>
</svg>
